<svg id="Layer_4" data-name="Layer 4" xmlns="http://www.w3.org/2000/svg" viewBox="0 0 13.76 11.07"><title>fav</title><path d="M2.5.93h8.59a0,0,0,0,1,0,0v1.2a0,0,0,0,1,0,0H1.83a0,0,0,0,1,0,0V1.59A.66.66,0,0,1,2.5.93Z" fill="#007bff"/><rect x="54.01" y="13.73" width="3.24" height="1.2" transform="translate(-11.9 58.77) rotate(-90)" fill="#007bff"/><rect x="63.06" y="17.96" width="2.82" height="1.2" transform="translate(-7.29 71.84) rotate(-90)" fill="#007bff"/><path d="M55,16h1.73a.93.93,0,0,1,.93.93v.27a0,0,0,0,1,0,0H55a0,0,0,0,1,0,0V16A0,0,0,0,1,55,16Z" transform="translate(59.52 21.92) rotate(-180)" fill="#007bff"/><rect x="58.11" y="15.95" width="3.56" height="1.2" transform="translate(66.58 21.92) rotate(-180)" fill="#007bff"/><circle cx="12.23" cy="1.53" r="1.15" fill="#fff" stroke="#007bff" stroke-miterlimit="10" stroke-width="0.75"/><path d="M56.3,20h8.77a0,0,0,0,1,0,0v1.2a0,0,0,0,1,0,0H55.63a0,0,0,0,1,0,0v-.53A.67.67,0,0,1,56.3,20Z" transform="translate(67.5 29.96) rotate(-180)" fill="#007bff"/><path d="M9,4.77h1.82a1,1,0,0,1,1,1V6a0,0,0,0,1,0,0H9A0,0,0,0,1,9,6V4.77A0,0,0,0,1,9,4.77Z" fill="#007bff"/><circle cx="1.53" cy="9.54" r="1.15" fill="#fff" stroke="#007bff" stroke-miterlimit="10" stroke-width="0.75"/></svg>