<svg id="Layer_5" data-name="Layer 5" xmlns="http://www.w3.org/2000/svg" viewBox="0 0 31.71 12.38"><title>tecnologia</title><path d="M5.54.93H29.37a0,0,0,0,1,0,0v1.2a0,0,0,0,1,0,0H4.45a0,0,0,0,1,0,0V2A1.09,1.09,0,0,1,5.54.93Z" fill="#007bff"/><rect x="47.69" y="13.33" width="3.24" height="1.2" transform="translate(-8.88 53.06) rotate(-90)" fill="#007bff"/><path d="M48.71,15.55h2a1,1,0,0,1,1,1v.2a0,0,0,0,1,0,0h-3a0,0,0,0,1,0,0v-1.2A0,0,0,0,1,48.71,15.55Z" transform="translate(56.21 22.12) rotate(-180)" fill="#007bff"/><rect x="53.47" y="15.55" width="14.33" height="1.2" transform="translate(77.02 22.12) rotate(-180)" fill="#007bff"/><circle cx="30.18" cy="1.53" r="1.15" fill="none" stroke="#007bff" stroke-miterlimit="10" stroke-width="0.75"/><path d="M47.62,20.44H72.55a0,0,0,0,1,0,0v1.2a0,0,0,0,1,0,0h-26a0,0,0,0,1,0,0v-.09A1.11,1.11,0,0,1,47.62,20.44Z" transform="translate(74.8 31.9) rotate(-180)" fill="#007bff"/><rect x="70.11" y="18" width="3.69" height="1.2" transform="translate(46.29 -63.54) rotate(90)" fill="#007bff"/><path d="M25.46,5.37h1.82a1,1,0,0,1,1,1v.2a0,0,0,0,1,0,0H25.46a0,0,0,0,1,0,0V5.37A0,0,0,0,1,25.46,5.37Z" fill="#007bff"/><circle cx="1.53" cy="10.86" r="1.15" fill="none" stroke="#007bff" stroke-miterlimit="10" stroke-width="0.75"/><path d="M52.47,16.19l.42-.51a1.32,1.32,0,0,0,.8.34c.31,0,.46-.12.46-.31s-.18-.27-.47-.39l-.42-.18a1,1,0,0,1-.66-.89,1.05,1.05,0,0,1,1.16-1,1.5,1.5,0,0,1,1.05.43l-.37.46a1.11,1.11,0,0,0-.68-.26c-.25,0-.41.11-.41.3s.21.27.49.38l.42.17a.9.9,0,0,1,.65.89,1.09,1.09,0,0,1-1.23,1A1.79,1.79,0,0,1,52.47,16.19Z" transform="translate(-44.26 -10.19)"/><path d="M55.34,13.37a.43.43,0,0,1,.85,0,.43.43,0,0,1-.85,0Zm.06.75h.73V16.6H55.4Z" transform="translate(-44.26 -10.19)"/><path d="M56.56,16.31l.33-.46a1,1,0,0,0,.64.27c.22,0,.31-.09.31-.22s-.24-.24-.5-.34a.83.83,0,0,1-.65-.73c0-.46.37-.77.94-.77a1.41,1.41,0,0,1,.88.31l-.33.44a1,1,0,0,0-.52-.21c-.19,0-.29.08-.29.2s.24.22.49.31.67.3.67.75-.35.8-1,.8A1.59,1.59,0,0,1,56.56,16.31Z" transform="translate(-44.26 -10.19)"/><path d="M58.77,16.31l.33-.46a1.06,1.06,0,0,0,.65.27c.21,0,.31-.09.31-.22s-.25-.24-.5-.34-.66-.32-.66-.73.38-.77,1-.77a1.4,1.4,0,0,1,.87.31l-.32.44a1,1,0,0,0-.53-.21c-.19,0-.28.08-.28.2s.23.22.49.31.67.3.67.75-.36.8-1,.8A1.61,1.61,0,0,1,58.77,16.31Z" transform="translate(-44.26 -10.19)"/><path d="M61.06,15.36a1.22,1.22,0,0,1,1.18-1.3c.7,0,1,.51,1,1.19a1.27,1.27,0,0,1,0,.32H61.78a.6.6,0,0,0,.64.53,1.09,1.09,0,0,0,.54-.16l.24.44a1.58,1.58,0,0,1-.88.28A1.21,1.21,0,0,1,61.06,15.36Zm1.61-.27c0-.28-.12-.47-.42-.47a.49.49,0,0,0-.48.47Z" transform="translate(-44.26 -10.19)"/><path d="M63.8,14.12h.6l0,.31h0a1.14,1.14,0,0,1,.8-.37c.54,0,.77.38.77,1V16.6H65.3V15.15c0-.35-.09-.47-.31-.47a.67.67,0,0,0-.46.24V16.6H63.8Z" transform="translate(-44.26 -10.19)"/><path d="M66.54,15.91c0-.52.42-.81,1.4-.91a.34.34,0,0,0-.39-.36,1.35,1.35,0,0,0-.66.23l-.26-.49a2.06,2.06,0,0,1,1.06-.32c.64,0,1,.36,1,1.12V16.6h-.6l0-.25h0a1.12,1.12,0,0,1-.72.31A.72.72,0,0,1,66.54,15.91Zm1.4,0v-.44c-.52.08-.69.23-.69.41s.11.24.28.24A.55.55,0,0,0,67.94,15.88Z" transform="translate(-44.26 -10.19)"/><path d="M55.17,17.83h-.54v-.38h1.52v.38h-.54v1.58h-.44Z" transform="translate(-44.26 -10.19)" fill="#007bff"/><path d="M56.1,18.67a.72.72,0,0,1,.7-.78.62.62,0,0,1,.64.71,1,1,0,0,1,0,.2h-.89a.36.36,0,0,0,.38.31.58.58,0,0,0,.33-.1l.14.27a.93.93,0,0,1-.53.17A.73.73,0,0,1,56.1,18.67Zm1-.17c0-.16-.07-.28-.25-.28a.3.3,0,0,0-.29.28Z" transform="translate(-44.26 -10.19)" fill="#007bff"/><path d="M57.65,18.67a.75.75,0,0,1,.78-.78.64.64,0,0,1,.44.16l-.21.28a.3.3,0,0,0-.2-.09c-.22,0-.35.17-.35.43s.14.42.33.42a.46.46,0,0,0,.27-.11l.17.29a.75.75,0,0,1-1.23-.6Z" transform="translate(-44.26 -10.19)" fill="#007bff"/><path d="M59.14,17.92h.36l0,.19h0a.7.7,0,0,1,.48-.22c.33,0,.47.22.47.6v.92H60v-.87c0-.21,0-.28-.18-.28a.38.38,0,0,0-.28.15v1h-.44Z" transform="translate(-44.26 -10.19)" fill="#007bff"/><path d="M60.77,18.67a.73.73,0,1,1,.73.78A.73.73,0,0,1,60.77,18.67Zm1,0c0-.26-.09-.43-.27-.43s-.28.17-.28.43.09.42.28.42S61.77,18.93,61.77,18.67Z" transform="translate(-44.26 -10.19)" fill="#007bff"/><path d="M62.5,19V17.31h.44V19c0,.09,0,.12.08.12h0l.06.32a.57.57,0,0,1-.22,0C62.6,19.45,62.5,19.25,62.5,19Z" transform="translate(-44.26 -10.19)" fill="#007bff"/><path d="M63.27,18.67a.73.73,0,1,1,.73.78A.73.73,0,0,1,63.27,18.67Zm1,0c0-.26-.09-.43-.27-.43s-.28.17-.28.43.09.42.28.42S64.27,18.93,64.27,18.67Z" transform="translate(-44.26 -10.19)" fill="#007bff"/><path d="M64.93,19.67a.34.34,0,0,1,.21-.3h0A.3.3,0,0,1,65,19.1a.4.4,0,0,1,.17-.28h0a.48.48,0,0,1-.2-.38.56.56,0,0,1,.62-.54.85.85,0,0,1,.23,0h.54v.32h-.23a.53.53,0,0,1,.05.2c0,.34-.27.5-.59.5a.57.57,0,0,1-.18,0,.13.13,0,0,0-.06.11c0,.08.06.11.23.11h.24c.36,0,.57.12.57.38s-.32.54-.84.54C65.21,20.05,64.93,19.93,64.93,19.67Zm1-.08c0-.1-.09-.12-.23-.12h-.16a.59.59,0,0,1-.21,0,.21.21,0,0,0-.08.15c0,.11.13.17.33.17S66,19.69,66,19.59Zm-.18-1.16c0-.16-.08-.25-.2-.25s-.21.09-.21.25.09.24.21.24S65.79,18.59,65.79,18.43Z" transform="translate(-44.26 -10.19)" fill="#007bff"/><path d="M66.59,17.47a.24.24,0,0,1,.25-.23.24.24,0,0,1,.26.23.23.23,0,0,1-.26.23A.23.23,0,0,1,66.59,17.47Zm0,.45h.45v1.49h-.45Z" transform="translate(-44.26 -10.19)" fill="#007bff"/><path d="M67.38,19c0-.31.25-.49.84-.55a.2.2,0,0,0-.23-.21.85.85,0,0,0-.4.13l-.16-.29a1.29,1.29,0,0,1,.64-.19c.38,0,.59.21.59.67v.85H68.3l0-.15h0a.63.63,0,0,1-.43.19A.44.44,0,0,1,67.38,19Zm.84,0v-.26c-.31,0-.41.13-.41.24s.06.15.17.15A.33.33,0,0,0,68.22,19Z" transform="translate(-44.26 -10.19)" fill="#007bff"/></svg>